# Blender v2.79 (sub 0) OBJ File: 'grassparticle.blend'
# www.blender.org
mtllib grassparticle.mtl
o Grass1_Plane.002
v -0.428825 0.969349 0.027272
v -0.429754 0.968727 0.033925
v 0.001146 0.004658 -0.013798
v -0.002762 0.002042 0.014198
v -0.056971 0.245921 0.000267
v -0.114510 0.484314 0.014865
v -0.200215 0.711806 0.024689
v -0.203978 0.709288 0.051643
v -0.118418 0.481699 0.042861
v -0.060977 0.243240 0.028964
vt 0.528706 0.337146
vt 0.777003 0.335686
vt 0.681769 0.214778
vt 0.498676 0.213273
vt 0.389462 0.722911
vt 0.492758 0.723269
vt 0.768304 0.573311
vt 0.532243 0.571863
vt 0.847129 0.455152
vt 0.603425 0.456649
vn 0.9624 0.2228 0.1552
vn 0.7385 0.6539 0.1642
vn 0.9258 0.3418 0.1612
usemtl Grass4
s off
f 5/1/1 10/2/1 4/3/1 3/4/1
f 1/5/2 2/6/2 8/7/2 7/8/2
f 7/8/3 8/7/3 9/9/3 6/10/3
f 6/10/1 9/9/1 10/2/1 5/1/1
o Grass2_Plane.003
v -0.120876 0.816078 -0.064383
v -0.127287 0.815964 -0.059819
v 0.030255 -0.034164 0.104809
v 0.003278 -0.034645 0.124015
v 0.030842 0.172608 0.110102
v 0.022660 0.377277 0.104458
v -0.004363 0.556765 0.072066
v -0.030336 0.556301 0.090557
v -0.004318 0.376795 0.123664
v 0.003188 0.172114 0.129790
vt 0.581521 0.354775
vt 0.810243 0.356617
vt 0.483140 0.027056
vt 0.295514 0.025215
vt 0.126340 0.960432
vt 0.257801 0.960432
vt 0.694123 0.673934
vt 0.372146 0.673934
vt 0.834800 0.581811
vt 0.516358 0.581811
vn 0.5801 -0.0225 0.8142
vn 0.4709 0.5671 0.6757
vn 0.5620 0.2281 0.7951
vn 0.5788 0.0456 0.8142
usemtl Grass4
s off
f 15/11/4 20/12/4 14/13/4 13/14/4
f 11/15/5 12/16/5 18/17/5 17/18/5
f 17/18/6 18/17/6 19/19/6 16/20/6
f 16/20/7 19/19/7 20/12/7 15/11/7
o Grass3_Plane.004
v 0.096639 0.915116 0.106506
v 0.106457 0.914315 0.105560
v -0.016656 -0.000401 -0.128759
v 0.024652 -0.003768 -0.132739
v 0.003634 0.201004 -0.083115
v 0.024718 0.399982 -0.038102
v 0.047982 0.609931 0.017621
v 0.087753 0.606689 0.013790
v 0.066026 0.396615 -0.042082
v 0.045978 0.197552 -0.087195
vt 0.429596 0.643292
vt 0.714083 0.646020
vt 0.830127 0.554769
vt 0.552599 0.552108
vt 0.110338 0.971377
vt 0.176295 0.972010
vt 0.461557 0.832060
vt 0.194361 0.829498
vt 0.592470 0.736143
vt 0.314942 0.733482
vn -0.0750 0.2276 -0.9709
vn -0.0684 0.2890 -0.9549
vn -0.0712 0.2632 -0.9621
usemtl Grass4
s off
f 25/21/8 30/22/8 24/23/8 23/24/8
f 21/25/9 22/26/9 28/27/9 27/28/9
f 27/28/10 28/27/10 29/29/10 26/30/10
f 26/30/8 29/29/8 30/22/8 25/21/8
o Grass4_Plane.005
v 0.044418 0.000282 0.009101
v 0.015121 0.001100 -0.006324
v 0.073083 0.241533 -0.031658
v 0.100684 0.480000 -0.072327
v 0.129427 0.711421 -0.128283
v 0.111364 0.711926 -0.137792
v 0.071387 0.480818 -0.087751
v 0.043051 0.242372 -0.047469
vt 0.589751 0.111964
vt 0.415924 0.114116
vt 0.324246 0.027775
vt 0.493823 0.025675
vt 0.738924 0.281534
vt 0.634381 0.282829
vt 0.510762 0.199401
vt 0.680339 0.197302
vn -0.4520 0.2006 0.8692
vn -0.4438 0.2623 0.8569
usemtl Grass4
s off
f 33/31/11 38/32/11 32/33/11 31/34/11
f 35/35/12 36/36/12 37/37/12 34/38/12
f 34/38/11 37/37/11 38/32/11 33/31/11
